# xmcd
#
# Track frame offsets: 
#        150
#        21112
#        41175
#        58875
#        85575
#        103050
#        114337
#        135412
#        151725
#        164475
#        177600
#        205987
#        220200
#
# Disc length: 3149 seconds
#
# Revision: 3
# Processed by: cddbd v1.5.2PL0 Copyright (c) Steve Scherf et al.
# Submitted via: ExactAudioCopy v1.0b3
#
DISCID=b30c4b0d
DTITLE=Mike Welch - Catch Me
DYEAR=1998
DGENRE=Blues
TTITLE0=As Good as Gone
TTITLE1=Make Up Your Mind
TTITLE2=If I Love You
TTITLE3=Mole's Blues
TTITLE4=Changing of the Guard
TTITLE5=Catch Me (Nothing Lasts Forever)
TTITLE6=Worried Life Blues
TTITLE7=Can't Reach You
TTITLE8=My Love Belongs to You
TTITLE9=A Price to Pay
TTITLE10=Blues for Cara
TTITLE11=Money (That's What I Want)
TTITLE12=Don't Worry
EXTD=YEAR: 1998
EXTT0=
EXTT1=
EXTT2=
EXTT3=
EXTT4=
EXTT5=
EXTT6=
EXTT7=
EXTT8=
EXTT9=
EXTT10=
EXTT11=
EXTT12=
PLAYORDER=
